<?xml version="1.0" standalone="no"?>
<!DOCTYPE svg PUBLIC "-//W3C//DTD SVG 1.1//EN" "http://www.w3.org/Graphics/SVG/1.1/DTD/svg11.dtd">
<svg version="1.1" xmlns="http://www.w3.org/2000/svg" viewBox="0 0 163.35772391185947 145.22000701790125" width="326.71544782371893" height="290.4400140358025"><!-- svg-source:excalidraw --><metadata></metadata><defs><style class="style-fonts">
      </style></defs><g transform="translate(46.72013880548593 76.69200005389507) rotate(0 34.71020452353514 -1.8149126548253207)" stroke="none"><path fill="#1d3ee4" d="M 0,-4.13 Q 0,-4.13 2.86,-4.20 5.73,-4.28 8.39,-4.37 11.04,-4.46 14.52,-4.40 18.00,-4.35 20.91,-4.40 23.82,-4.45 27.28,-4.40 30.73,-4.35 35.28,-4.25 39.82,-4.15 43.10,-4.25 46.38,-4.35 50.21,-4.64 54.05,-4.92 57.11,-5.43 60.16,-5.93 64.34,-6.96 68.52,-7.99 69.24,-8.02 69.96,-8.05 70.65,-7.85 71.34,-7.64 71.93,-7.23 72.53,-6.82 72.95,-6.24 73.38,-5.66 73.60,-4.97 73.82,-4.28 73.81,-3.56 73.80,-2.84 73.56,-2.16 73.32,-1.48 72.88,-0.91 72.43,-0.35 71.83,0.04 71.23,0.44 70.53,0.62 69.83,0.80 69.11,0.75 68.40,0.70 67.73,0.43 67.06,0.15 66.52,-0.31 65.98,-0.79 65.61,-1.41 65.25,-2.03 65.11,-2.74 64.96,-3.45 65.05,-4.16 65.14,-4.88 65.45,-5.53 65.76,-6.18 66.27,-6.69 66.77,-7.21 67.41,-7.54 68.05,-7.87 68.77,-7.97 69.48,-8.08 70.19,-7.95 70.90,-7.83 71.53,-7.48 72.16,-7.13 72.65,-6.60 73.14,-6.07 73.43,-5.41 73.73,-4.76 73.79,-4.04 73.86,-3.32 73.70,-2.62 73.53,-1.92 73.15,-1.30 72.77,-0.69 72.21,-0.23 71.66,0.22 70.98,0.47 70.31,0.73 70.31,0.73 70.31,0.73 67.93,1.09 65.55,1.46 63.40,1.62 61.24,1.78 58.03,2.15 54.82,2.52 50.67,3.07 46.52,3.61 43.28,3.62 40.04,3.63 35.39,3.99 30.73,4.35 27.28,4.40 23.82,4.45 20.91,4.40 18.00,4.35 14.52,4.40 11.04,4.46 8.39,4.37 5.73,4.28 2.86,4.20 0,4.13 -0.49,4.07 -0.98,4.01 -1.45,3.83 -1.91,3.65 -2.32,3.37 -2.73,3.09 -3.06,2.71 -3.39,2.34 -3.63,1.90 -3.86,1.46 -3.98,0.98 -4.10,0.49 -4.10,-0.00 -4.10,-0.49 -3.98,-0.98 -3.86,-1.46 -3.63,-1.90 -3.39,-2.34 -3.06,-2.71 -2.73,-3.09 -2.32,-3.37 -1.91,-3.65 -1.45,-3.83 -0.98,-4.01 -0.49,-4.07 0.00,-4.13 0.00,-4.13 L 0,-4.13 Z"></path></g><g transform="translate(79.84229475604889 39.03256246626847) rotate(0 3.4029612277976184 36.071389014654414)" stroke="none"><path fill="#1d3ee4" d="M 4.87,-1.16 Q 4.87,-1.16 5.53,1.57 6.18,4.31 6.67,6.79 7.16,9.27 7.66,13.86 8.15,18.45 8.16,21.77 8.17,25.09 8.36,27.52 8.55,29.95 8.67,32.28 8.80,34.62 8.87,36.93 8.94,39.23 9.12,41.36 9.29,43.49 9.76,47.55 10.24,51.61 10.77,55.03 11.30,58.44 11.74,60.87 12.18,63.30 12.62,65.58 13.06,67.86 13.11,70.00 13.17,72.14 13.00,73.15 12.84,74.17 12.35,75.08 11.87,75.99 11.12,76.70 10.38,77.41 9.44,77.84 8.50,78.27 7.48,78.39 6.46,78.50 5.45,78.28 4.44,78.05 3.56,77.52 2.68,76.99 2.01,76.21 1.34,75.42 0.96,74.46 0.58,73.51 0.53,72.48 0.47,71.45 0.75,70.46 1.02,69.46 1.60,68.61 2.18,67.76 3.00,67.13 3.82,66.51 4.79,66.18 5.77,65.85 6.80,65.85 7.83,65.85 8.81,66.18 9.78,66.51 10.60,67.14 11.43,67.76 12.00,68.61 12.58,69.46 12.86,70.46 13.13,71.45 13.08,72.48 13.02,73.51 12.64,74.46 12.26,75.42 11.59,76.21 10.92,76.99 10.04,77.52 9.16,78.05 8.15,78.28 7.14,78.50 6.12,78.39 5.10,78.27 4.16,77.84 3.23,77.41 2.48,76.70 1.73,75.99 1.25,75.08 0.77,74.17 0.60,73.15 0.43,72.14 0.43,72.14 0.43,72.14 0.46,70.44 0.48,68.74 0.35,66.61 0.23,64.48 0.03,62.22 -0.17,59.96 -0.52,56.34 -0.88,52.71 -1.21,48.44 -1.54,44.18 -1.66,41.78 -1.77,39.38 -1.76,37.16 -1.75,34.95 -1.77,32.79 -1.78,30.63 -1.93,28.00 -2.07,25.37 -2.24,22.33 -2.40,19.28 -2.66,15.16 -2.92,11.03 -3.24,8.83 -3.57,6.64 -4.22,3.90 -4.87,1.16 -4.94,0.56 -5.01,-0.03 -4.93,-0.63 -4.85,-1.23 -4.64,-1.80 -4.42,-2.36 -4.07,-2.86 -3.72,-3.35 -3.27,-3.75 -2.81,-4.14 -2.27,-4.42 -1.74,-4.70 -1.15,-4.84 -0.56,-4.98 0.03,-4.97 0.64,-4.97 1.22,-4.82 1.81,-4.67 2.34,-4.38 2.88,-4.10 3.33,-3.69 3.78,-3.29 4.11,-2.79 4.45,-2.29 4.66,-1.72 4.87,-1.16 4.87,-1.16 L 4.87,-1.16 Z"></path></g><g transform="translate(115.33827888413998 15.58083596737174) rotate(0 -33.65941692821025 57.029167541578886)" stroke="none"><path fill="#1e1e1e" d="M -1.71,2.8 Q -1.71,2.8 -0.27,2.77 -0.54,2.74 -0.80,2.66 -1.07,2.58 -1.31,2.45 -1.55,2.32 -1.76,2.15 -1.97,1.97 -2.15,1.76 -2.32,1.55 -2.45,1.31 -2.58,1.07 -2.66,0.80 -2.74,0.54 -2.77,0.27 -2.8,-3.42 -2.77,-0.27 -2.74,-0.54 -2.66,-0.80 -2.58,-1.07 -2.45,-1.31 -2.32,-1.55 -2.15,-1.76 -1.97,-1.97 -1.76,-2.15 -1.55,-2.32 -1.31,-2.45 -1.07,-2.58 -0.80,-2.66 -0.54,-2.74 -0.27,-2.77 1.71,-2.8 0.08,-2.8 0.17,-2.8 0.48,-2.78 0.79,-2.77 1.44,-2.60 2.09,-2.44 2.78,-2.09 3.47,-1.75 3.96,-1.54 4.46,-1.33 5.00,-1.12 5.54,-0.91 6.08,-0.68 6.62,-0.45 7.15,-0.15 7.69,0.14 8.21,0.42 8.72,0.70 9.25,1.11 9.77,1.52 10.43,1.96 11.08,2.39 11.88,2.99 12.68,3.58 13.40,4.12 14.12,4.65 15.10,5.35 16.09,6.05 16.81,6.81 17.54,7.57 18.17,8.05 18.81,8.53 19.52,9.34 20.23,10.15 20.81,10.69 21.39,11.22 22.17,12.09 22.96,12.95 23.65,13.76 24.33,14.58 24.93,15.42 25.53,16.27 26.13,17.09 26.72,17.91 27.21,18.79 27.70,19.66 28.19,20.52 28.68,21.37 29.20,22.34 29.72,23.31 30.26,24.37 30.80,25.42 31.25,26.49 31.71,27.55 32.18,28.65 32.64,29.75 33.17,30.90 33.70,32.05 33.96,32.90 34.23,33.75 34.61,34.73 34.98,35.71 35.28,36.54 35.59,37.38 35.91,38.57 36.23,39.76 36.66,41.08 37.09,42.40 37.31,43.45 37.54,44.49 37.82,45.72 38.11,46.94 38.25,47.81 38.39,48.68 38.64,49.81 38.88,50.93 39.01,51.71 39.14,52.49 39.28,53.44 39.43,54.39 39.59,55.16 39.75,55.92 39.84,56.57 39.92,57.22 40.14,58.33 40.35,59.44 40.47,60.42 40.59,61.40 40.65,62.18 40.70,62.96 40.73,64.14 40.76,65.33 40.77,66.26 40.79,67.19 40.79,68.00 40.80,68.82 40.80,69.58 40.81,70.33 40.81,71.59 40.81,72.84 40.81,73.64 40.81,74.43 40.81,75.18 40.81,75.93 40.81,76.57 40.81,77.20 40.81,77.99 40.80,78.77 40.61,79.96 40.41,81.14 40.22,81.98 40.04,82.82 39.85,83.52 39.66,84.22 39.48,84.83 39.30,85.45 39.08,86.11 38.87,86.77 38.57,87.41 38.26,88.04 38.00,88.56 37.75,89.08 37.33,89.73 36.91,90.38 36.54,90.94 36.17,91.51 35.51,92.45 34.86,93.39 34.24,94.16 33.61,94.93 33.07,95.53 32.53,96.14 32.05,96.75 31.56,97.36 30.88,98.01 30.20,98.67 29.64,99.13 29.08,99.59 28.54,100.07 28.01,100.56 27.39,101.06 26.77,101.57 26.20,102.08 25.63,102.59 24.96,103.14 24.29,103.69 23.61,104.23 22.92,104.76 22.23,105.29 21.54,105.82 20.86,106.34 20.17,106.86 19.37,107.49 18.56,108.12 17.71,108.70 16.86,109.28 16.08,109.84 15.31,110.39 14.50,110.92 13.68,111.45 12.82,112.08 11.95,112.71 10.95,113.32 9.96,113.92 8.98,114.50 8.00,115.09 6.99,115.55 5.97,116.02 5.03,116.51 4.09,117.01 2.97,117.48 1.86,117.95 0.79,118.26 -0.26,118.57 -1.20,118.89 -2.13,119.21 -2.96,119.47 -3.80,119.72 -5.05,120.12 -6.31,120.52 -7.39,120.75 -8.47,120.97 -9.30,121.06 -10.12,121.16 -11.22,121.38 -12.33,121.60 -13.34,121.73 -14.35,121.85 -15.68,121.91 -17.01,121.97 -18.02,122.08 -19.03,122.20 -20.39,122.26 -21.74,122.32 -23.20,122.35 -24.65,122.38 -26.25,122.39 -27.84,122.41 -29.08,122.41 -30.31,122.42 -32.04,122.42 -33.77,122.42 -35.69,122.25 -37.62,122.07 -39.05,121.98 -40.48,121.89 -42.29,121.57 -44.10,121.26 -46.46,120.84 -48.81,120.43 -50.50,120.12 -52.19,119.81 -54.21,119.20 -56.23,118.60 -58.61,117.86 -61.00,117.13 -62.65,116.58 -64.30,116.03 -66.27,115.32 -68.23,114.60 -69.68,114.06 -71.13,113.52 -72.57,112.89 -74.00,112.26 -75.37,111.67 -76.74,111.07 -77.63,110.58 -78.53,110.09 -79.57,109.50 -80.61,108.92 -81.63,108.32 -82.66,107.72 -83.60,107.01 -84.53,106.31 -85.44,105.51 -86.34,104.71 -87.22,103.88 -88.11,103.05 -88.83,102.35 -89.56,101.65 -90.46,100.67 -91.36,99.69 -92.52,98.41 -93.67,97.13 -94.52,96.12 -95.37,95.12 -96.42,93.82 -97.46,92.52 -98.51,91.17 -99.56,89.81 -100.31,88.80 -101.06,87.79 -101.74,86.61 -102.41,85.42 -103.01,84.20 -103.61,82.98 -104.10,81.80 -104.59,80.62 -105.02,79.40 -105.44,78.19 -105.81,77.00 -106.19,75.82 -106.47,75.03 -106.75,74.25 -107.10,73.02 -107.45,71.80 -107.63,70.52 -107.80,69.24 -107.89,68.33 -107.97,67.43 -108.01,66.35 -108.05,65.26 -108.07,64.12 -108.09,62.98 -108.10,62.09 -108.11,61.20 -108.03,60.05 -107.94,58.90 -107.89,57.89 -107.84,56.89 -107.54,55.52 -107.23,54.16 -106.98,53.12 -106.74,52.08 -106.17,50.42 -105.61,48.75 -105.24,47.59 -104.88,46.42 -104.51,45.38 -104.15,44.34 -103.59,42.80 -103.04,41.26 -102.48,40.10 -101.92,38.95 -101.49,38.07 -101.06,37.20 -100.49,35.95 -99.91,34.71 -99.34,33.60 -98.77,32.50 -98.29,31.66 -97.82,30.82 -97.02,29.57 -96.23,28.32 -95.58,27.45 -94.94,26.59 -94.40,25.79 -93.86,24.99 -93.41,24.23 -92.96,23.47 -92.54,22.80 -92.12,22.13 -91.32,20.86 -90.52,19.59 -89.91,18.56 -89.30,17.53 -88.68,16.68 -88.06,15.83 -87.54,15.21 -87.03,14.60 -86.63,13.99 -86.23,13.39 -85.77,12.71 -85.32,12.03 -84.37,10.97 -83.43,9.92 -82.72,9.07 -82.02,8.23 -81.46,7.60 -80.91,6.98 -80.41,6.45 -79.92,5.93 -79.53,5.44 -79.15,4.94 -78.64,4.47 -78.13,3.99 -77.54,3.42 -76.94,2.84 -76.37,2.38 -75.81,1.91 -75.33,1.48 -74.84,1.05 -74.43,0.75 -74.02,0.46 -73.63,0.13 -73.25,-0.19 -72.82,-0.48 -72.39,-0.78 -71.62,-1.29 -70.85,-1.80 -70.22,-2.14 -69.59,-2.47 -69.22,-2.71 -68.85,-2.94 -68.38,-3.21 -67.91,-3.47 -67.41,-3.69 -66.91,-3.91 -66.48,-4.11 -66.04,-4.31 -65.26,-4.60 -64.48,-4.89 -63.75,-5.14 -63.01,-5.40 -62.29,-5.54 -61.57,-5.68 -61.11,-5.74 -60.65,-5.79 -60.06,-5.91 -59.47,-6.02 -58.91,-6.08 -58.35,-6.14 -57.79,-6.24 -57.23,-6.35 -56.01,-6.59 -54.79,-6.83 -53.86,-6.95 -52.92,-7.08 -52.16,-7.14 -51.40,-7.19 -50.67,-7.31 -49.95,-7.42 -49.35,-7.48 -48.75,-7.53 -48.17,-7.65 -47.59,-7.77 -46.85,-7.83 -46.10,-7.90 -45.39,-7.94 -44.67,-7.97 -43.88,-7.98 -43.08,-8.00 -42.34,-8.01 -41.60,-8.01 -41.05,-8.01 -40.51,-8.01 -39.90,-8.10 -39.28,-8.18 -38.62,-8.23 -37.96,-8.28 -37.27,-8.31 -36.58,-8.33 -35.81,-8.34 -35.03,-8.35 -34.29,-8.36 -33.56,-8.36 -32.75,-8.37 -31.95,-8.37 -31.11,-8.37 -30.27,-8.37 -29.42,-8.37 -28.56,-8.37 -27.79,-8.37 -27.01,-8.38 -26.27,-8.38 -25.54,-8.38 -24.91,-8.38 -24.28,-8.38 -23.70,-8.38 -23.12,-8.38 -22.22,-8.38 -21.33,-8.38 -20.70,-8.38 -20.08,-8.38 -19.59,-8.38 -19.11,-8.38 -18.60,-8.38 -18.10,-8.38 -17.76,-8.38 -17.42,-8.38 -17.07,-8.38 -16.73,-8.38 -16.21,-8.37 -15.69,-8.35 -15.28,-8.26 -14.86,-8.16 -14.54,-8.13 -14.23,-8.10 -13.79,-8.06 -13.35,-8.02 -12.98,-7.92 -12.60,-7.81 -12.41,-7.78 -12.23,-7.76 -11.73,-7.71 -11.23,-7.66 -10.91,-7.55 -10.59,-7.43 -10.49,-7.42 -10.39,-7.41 -9.97,-7.37 -9.56,-7.33 -9.18,-7.22 -8.79,-7.12 -8.37,-7.04 -7.94,-6.97 -7.61,-6.84 -7.28,-6.70 -7.24,-6.70 -7.20,-6.69 -6.84,-6.62 -6.48,-6.54 -6.21,-6.41 -5.93,-6.28 -5.99,-6.30 -6.05,-6.32 -6.02,-6.32 -5.98,-6.32 -5.88,-6.31 -5.78,-6.30 -5.32,-6.25 -4.87,-6.20 -4.55,-6.07 -4.23,-5.93 -4.29,-5.95 -4.35,-5.97 -3.78,-5.81 -3.22,-5.65 -2.99,-5.47 -2.77,-5.29 -3.11,-5.45 -3.45,-5.61 -3.42,-5.62 -3.39,-5.63 -3.03,-5.59 -2.67,-5.56 -2.29,-5.44 -1.91,-5.33 -1.83,-5.31 -1.75,-5.29 -1.16,-5.15 -0.58,-5.01 -0.34,-4.83 -0.10,-4.65 -0.36,-4.78 -0.62,-4.90 -0.65,-4.91 -0.68,-4.92 -0.05,-4.77 0.56,-4.62 0.81,-4.43 1.06,-4.24 1.06,-4.27 1.05,-4.30 1.19,-4.20 1.33,-4.10 1.47,-4.05 1.62,-4.01 1.78,-3.89 1.95,-3.78 2.32,-3.60 2.69,-3.42 2.83,-3.26 2.97,-3.11 2.64,-3.29 2.32,-3.48 2.79,-3.30 3.27,-3.13 3.46,-2.95 3.65,-2.76 3.61,-2.82 3.57,-2.88 3.68,-2.79 3.80,-2.69 3.65,-2.76 3.50,-2.82 4.02,-2.65 4.54,-2.48 4.75,-2.30 4.95,-2.12 5.18,-1.99 5.40,-1.87 5.50,-1.72 5.60,-1.58 5.51,-1.69 5.41,-1.79 5.91,-1.37 6.40,-0.96 6.41,-0.88 6.42,-0.81 6.33,-0.92 6.23,-1.04 6.68,-0.64 7.12,-0.24 7.45,0.40 7.78,1.05 7.82,1.32 7.87,1.59 7.86,1.86 7.86,2.14 7.80,2.41 7.73,2.67 7.62,2.92 7.51,3.17 7.35,3.40 7.19,3.62 7.00,3.81 6.80,4.00 6.56,4.15 6.33,4.29 6.08,4.39 5.82,4.49 5.55,4.54 5.28,4.58 5.00,4.58 4.73,4.57 4.46,4.51 4.19,4.45 3.94,4.34 3.69,4.22 3.47,4.07 3.24,3.91 3.06,3.71 2.87,3.51 2.72,3.28 2.57,3.04 2.48,2.79 2.38,2.53 2.33,2.26 2.29,1.99 2.29,1.72 2.30,1.44 2.36,1.17 2.42,0.91 2.53,0.66 2.64,0.41 2.80,0.18 2.96,-0.03 3.16,-0.22 3.36,-0.41 3.59,-0.56 3.82,-0.70 4.08,-0.80 4.34,-0.90 4.61,-0.95 4.88,-0.99 5.15,-0.99 5.43,-0.98 5.69,-0.92 5.96,-0.86 6.21,-0.75 6.46,-0.63 6.69,-0.48 6.91,-0.32 7.10,-0.12 7.29,0.07 7.44,0.30 7.58,0.54 7.68,0.79 7.78,1.05 7.82,1.32 7.87,1.59 7.86,1.86 7.86,2.14 7.80,2.41 7.73,2.67 7.62,2.92 7.51,3.17 7.35,3.40 7.19,3.62 7.00,3.81 6.80,4.00 6.56,4.15 6.33,4.29 6.08,4.39 5.82,4.49 5.55,4.54 5.28,4.58 5.00,4.58 4.73,4.57 4.46,4.51 4.19,4.45 3.94,4.34 3.69,4.22 3.47,4.07 3.24,3.91 3.06,3.71 2.87,3.51 2.72,3.28 2.57,3.04 2.66,3.14 2.74,3.24 2.88,3.39 3.03,3.54 2.69,3.28 2.34,3.02 2.21,2.80 2.07,2.59 2.27,2.78 2.47,2.96 2.14,2.74 1.80,2.53 1.78,2.44 1.75,2.36 1.71,2.39 1.68,2.41 1.71,2.39 1.75,2.37 1.93,2.48 2.12,2.60 1.64,2.42 1.17,2.24 0.99,2.11 0.81,1.98 0.52,1.82 0.23,1.66 0.26,1.64 0.30,1.61 0.47,1.73 0.64,1.85 0.05,1.55 -0.52,1.25 -0.56,1.17 -0.59,1.10 -0.56,1.16 -0.53,1.23 -0.70,1.11 -0.87,1.00 -1.06,0.93 -1.24,0.86 -1.40,0.75 -1.57,0.63 -1.83,0.50 -2.08,0.38 -2.00,0.38 -1.92,0.39 -1.62,0.51 -1.33,0.63 -1.67,0.57 -2.01,0.52 -2.55,0.29 -3.08,0.07 -3.04,0.05 -3.00,0.03 -2.82,0.13 -2.64,0.22 -3.01,0.15 -3.37,0.07 -3.55,0.00 -3.73,-0.06 -3.79,-0.05 -3.84,-0.04 -4.29,-0.10 -4.74,-0.16 -5.34,-0.42 -5.94,-0.68 -5.89,-0.69 -5.84,-0.71 -5.63,-0.59 -5.41,-0.48 -5.82,-0.59 -6.23,-0.70 -6.26,-0.74 -6.29,-0.79 -6.18,-0.75 -6.08,-0.71 -6.33,-0.73 -6.58,-0.75 -6.89,-0.80 -7.21,-0.84 -7.63,-0.97 -8.05,-1.09 -8.15,-1.16 -8.25,-1.23 -8.28,-1.21 -8.30,-1.20 -8.70,-1.30 -9.10,-1.41 -9.28,-1.50 -9.47,-1.59 -9.73,-1.62 -9.99,-1.64 -10.28,-1.73 -10.57,-1.83 -10.81,-1.84 -11.05,-1.85 -11.55,-1.94 -12.06,-2.03 -12.25,-2.11 -12.45,-2.19 -12.64,-2.19 -12.83,-2.19 -13.32,-2.27 -13.81,-2.34 -14.09,-2.43 -14.36,-2.52 -14.54,-2.52 -14.71,-2.52 -15.26,-2.58 -15.82,-2.64 -16.10,-2.72 -16.38,-2.80 -16.55,-2.79 -16.73,-2.78 -17.07,-2.78 -17.42,-2.78 -17.76,-2.78 -18.10,-2.78 -18.60,-2.78 -19.11,-2.78 -19.59,-2.78 -20.08,-2.78 -20.70,-2.78 -21.33,-2.78 -22.22,-2.78 -23.12,-2.78 -23.70,-2.78 -24.28,-2.78 -24.91,-2.78 -25.54,-2.78 -26.27,-2.78 -27.01,-2.78 -27.78,-2.77 -28.56,-2.77 -29.41,-2.77 -30.27,-2.77 -31.10,-2.77 -31.93,-2.77 -32.73,-2.77 -33.53,-2.76 -34.25,-2.76 -34.97,-2.75 -35.71,-2.74 -36.45,-2.73 -37.05,-2.71 -37.65,-2.69 -38.18,-2.65 -38.70,-2.61 -39.41,-2.52 -40.12,-2.43 -40.84,-2.42 -41.55,-2.41 -42.28,-2.41 -43.00,-2.40 -43.75,-2.38 -44.49,-2.37 -45.11,-2.34 -45.73,-2.32 -46.26,-2.27 -46.79,-2.22 -47.36,-2.11 -47.94,-1.99 -48.60,-1.93 -49.26,-1.87 -50.00,-1.75 -50.75,-1.63 -51.54,-1.57 -52.33,-1.51 -53.11,-1.41 -53.88,-1.30 -55.03,-1.08 -56.18,-0.85 -56.86,-0.72 -57.55,-0.60 -58.09,-0.54 -58.64,-0.48 -59.21,-0.37 -59.77,-0.26 -60.24,-0.20 -60.70,-0.15 -61.13,-0.07 -61.55,0.00 -62.06,0.18 -62.58,0.37 -63.24,0.61 -63.90,0.86 -64.26,1.03 -64.63,1.19 -65.02,1.36 -65.41,1.53 -65.69,1.69 -65.96,1.85 -66.38,2.11 -66.79,2.37 -67.39,2.68 -67.98,2.99 -68.62,3.42 -69.26,3.85 -69.55,4.05 -69.85,4.25 -70.21,4.56 -70.57,4.87 -70.95,5.14 -71.34,5.42 -71.75,5.79 -72.16,6.16 -72.69,6.59 -73.21,7.02 -73.75,7.54 -74.29,8.07 -74.65,8.40 -75.02,8.73 -75.34,9.14 -75.65,9.56 -76.21,10.15 -76.77,10.75 -77.27,11.32 -77.77,11.89 -78.49,12.74 -79.20,13.59 -80.05,14.52 -80.89,15.46 -81.23,15.97 -81.56,16.48 -82.05,17.22 -82.54,17.95 -83.10,18.62 -83.65,19.28 -84.14,19.94 -84.62,20.60 -85.18,21.56 -85.73,22.51 -86.56,23.81 -87.38,25.11 -87.78,25.75 -88.17,26.38 -88.65,27.18 -89.13,27.98 -89.75,28.90 -90.37,29.82 -90.99,30.66 -91.61,31.49 -92.31,32.60 -93.01,33.70 -93.43,34.44 -93.85,35.17 -94.37,36.17 -94.88,37.17 -95.44,38.39 -96.01,39.60 -96.45,40.50 -96.89,41.41 -97.38,42.42 -97.88,43.43 -98.37,44.82 -98.87,46.21 -99.22,47.20 -99.56,48.19 -99.92,49.34 -100.28,50.49 -100.82,52.06 -101.35,53.63 -101.56,54.52 -101.77,55.42 -102.03,56.53 -102.29,57.64 -102.32,58.44 -102.35,59.24 -102.43,60.31 -102.52,61.38 -102.50,62.14 -102.49,62.90 -102.48,64.00 -102.46,65.11 -102.42,66.09 -102.38,67.06 -102.31,67.83 -102.24,68.60 -102.10,69.62 -101.97,70.65 -101.70,71.59 -101.42,72.53 -101.15,73.28 -100.88,74.03 -100.50,75.23 -100.13,76.42 -99.74,77.52 -99.36,78.62 -98.94,79.64 -98.51,80.66 -97.99,81.73 -97.46,82.80 -96.91,83.77 -96.37,84.73 -95.74,85.58 -95.10,86.43 -94.08,87.74 -93.07,89.05 -92.06,90.30 -91.05,91.55 -90.25,92.50 -89.45,93.45 -88.34,94.68 -87.22,95.92 -86.39,96.83 -85.55,97.73 -84.90,98.37 -84.24,99.00 -83.40,99.79 -82.57,100.57 -81.78,101.27 -80.99,101.97 -80.27,102.52 -79.56,103.06 -78.69,103.56 -77.83,104.06 -76.81,104.63 -75.80,105.20 -75.04,105.62 -74.27,106.05 -73.02,106.59 -71.77,107.13 -70.40,107.73 -69.03,108.33 -67.66,108.84 -66.30,109.35 -64.38,110.04 -62.46,110.74 -60.87,111.27 -59.29,111.80 -56.94,112.52 -54.60,113.24 -52.74,113.80 -50.88,114.36 -49.35,114.64 -47.82,114.92 -45.48,115.33 -43.13,115.74 -41.47,116.04 -39.82,116.33 -38.50,116.41 -37.18,116.49 -35.35,116.66 -33.52,116.83 -31.93,116.82 -30.33,116.82 -29.11,116.81 -27.89,116.81 -26.31,116.79 -24.73,116.78 -23.33,116.75 -21.92,116.72 -20.70,116.67 -19.47,116.61 -18.46,116.50 -17.45,116.38 -16.13,116.33 -14.81,116.27 -14.02,116.17 -13.22,116.08 -12.11,115.85 -11.00,115.63 -10.18,115.53 -9.36,115.44 -8.55,115.27 -7.73,115.11 -6.60,114.74 -5.47,114.37 -4.66,114.13 -3.85,113.88 -2.90,113.56 -1.95,113.23 -0.98,112.95 -0.01,112.67 0.84,112.31 1.69,111.95 2.60,111.47 3.51,110.99 4.45,110.56 5.39,110.14 6.23,109.63 7.07,109.12 7.96,108.58 8.86,108.05 9.68,107.45 10.50,106.84 11.32,106.31 12.15,105.77 12.90,105.23 13.64,104.70 14.45,104.15 15.25,103.60 16.00,103.01 16.76,102.42 17.45,101.89 18.15,101.36 18.82,100.85 19.49,100.33 20.14,99.83 20.79,99.32 21.39,98.83 21.98,98.34 22.55,97.83 23.12,97.32 23.74,96.81 24.35,96.31 24.89,95.83 25.43,95.34 25.96,94.90 26.49,94.47 26.96,94.03 27.42,93.59 27.83,93.07 28.24,92.54 28.79,91.92 29.35,91.30 29.86,90.66 30.38,90.02 30.96,89.20 31.53,88.37 31.88,87.84 32.23,87.31 32.55,86.82 32.88,86.32 33.05,85.95 33.23,85.59 33.45,85.14 33.67,84.70 33.80,84.26 33.94,83.81 34.11,83.25 34.27,82.69 34.44,82.09 34.60,81.48 34.76,80.77 34.92,80.06 35.07,79.18 35.22,78.30 35.22,77.75 35.21,77.20 35.21,76.57 35.21,75.93 35.21,75.19 35.21,74.44 35.21,73.64 35.21,72.84 35.21,71.60 35.21,70.35 35.20,69.60 35.20,68.85 35.19,68.05 35.19,67.25 35.17,66.34 35.16,65.43 35.14,64.34 35.11,63.24 35.06,62.59 35.01,61.95 34.92,61.13 34.82,60.31 34.60,59.21 34.39,58.11 34.31,57.49 34.23,56.86 34.08,56.13 33.92,55.40 33.76,54.38 33.61,53.37 33.50,52.68 33.38,51.98 33.14,50.85 32.89,49.73 32.75,48.88 32.62,48.03 32.34,46.87 32.07,45.71 31.88,44.78 31.68,43.85 31.27,42.60 30.86,41.36 30.56,40.21 30.25,39.07 29.99,38.37 29.74,37.67 29.34,36.62 28.94,35.58 28.70,34.82 28.47,34.06 28.00,33.04 27.52,32.02 27.04,30.88 26.55,29.74 26.14,28.77 25.73,27.79 25.25,26.86 24.76,25.92 24.27,25.00 23.78,24.09 23.30,23.25 22.82,22.42 22.41,21.67 22.00,20.92 21.49,20.23 20.99,19.54 20.44,18.77 19.89,18.00 19.32,17.32 18.75,16.64 18.08,15.90 17.40,15.16 16.80,14.60 16.20,14.04 15.60,13.34 15.00,12.63 14.40,12.19 13.81,11.75 13.12,11.02 12.43,10.29 11.63,9.74 10.84,9.19 10.09,8.63 9.34,8.07 8.60,7.52 7.85,6.97 7.16,6.51 6.48,6.05 6.06,5.71 5.65,5.38 5.33,5.22 5.01,5.05 4.58,4.81 4.15,4.57 3.79,4.42 3.44,4.27 2.90,4.06 2.36,3.86 1.73,3.59 1.10,3.32 0.59,3.05 0.08,2.78 0.08,2.78 0.07,2.77 0.12,2.78 0.17,2.8 0.08,2.8 -1.71,2.8 -1.71,2.8 L -1.71,2.8 Z"></path></g></svg>